<mxfile host="65bd71144e">
    <diagram id="HS0lg_PoKlv11ZVYbhXw" name="Page-1">
        <mxGraphModel dx="520" dy="554" grid="1" gridSize="10" guides="1" tooltips="1" connect="1" arrows="1" fold="1" page="1" pageScale="1" pageWidth="850" pageHeight="1100" background="#ffffff" math="0" shadow="1">
            <root>
                <mxCell id="0"/>
                <mxCell id="1" parent="0"/>
                <mxCell id="YCCqw9m8MG-2d-XIQVSM-2" value="Dockerized Test Environment" style="text;html=1;strokeColor=none;fillColor=none;align=center;verticalAlign=middle;whiteSpace=wrap;rounded=0;" parent="1" vertex="1">
                    <mxGeometry x="390" y="220" width="260" height="20" as="geometry"/>
                </mxCell>
                <mxCell id="YCCqw9m8MG-2d-XIQVSM-3" value="algod&lt;br&gt;&amp;amp;&lt;br&gt;kmd" style="whiteSpace=wrap;html=1;aspect=fixed;" parent="1" vertex="1">
                    <mxGeometry x="450" y="280" width="80" height="80" as="geometry"/>
                </mxCell>
                <mxCell id="YCCqw9m8MG-2d-XIQVSM-4" value="" style="endArrow=none;dashed=1;html=1;strokeWidth=2;exitX=0.5;exitY=0;exitDx=0;exitDy=0;" parent="1" source="YCCqw9m8MG-2d-XIQVSM-28" edge="1">
                    <mxGeometry width="50" height="50" relative="1" as="geometry">
                        <mxPoint x="360" y="750" as="sourcePoint"/>
                        <mxPoint x="360" y="240" as="targetPoint"/>
                    </mxGeometry>
                </mxCell>
                <mxCell id="YCCqw9m8MG-2d-XIQVSM-5" value="Test Runtime Environment" style="text;html=1;strokeColor=none;fillColor=none;align=center;verticalAlign=middle;whiteSpace=wrap;rounded=0;" parent="1" vertex="1">
                    <mxGeometry x="120" y="220" width="180" height="20" as="geometry"/>
                </mxCell>
                <mxCell id="YCCqw9m8MG-2d-XIQVSM-6" value="Postgres" style="shape=cylinder;whiteSpace=wrap;html=1;boundedLbl=1;backgroundOutline=1;" parent="1" vertex="1">
                    <mxGeometry x="460" y="530" width="60" height="80" as="geometry"/>
                </mxCell>
                <mxCell id="YCCqw9m8MG-2d-XIQVSM-20" style="edgeStyle=orthogonalEdgeStyle;rounded=0;orthogonalLoop=1;jettySize=auto;html=1;strokeWidth=1;entryX=0;entryY=0.75;entryDx=0;entryDy=0;" parent="1" source="YCCqw9m8MG-2d-XIQVSM-14" target="YCCqw9m8MG-2d-XIQVSM-3" edge="1">
                    <mxGeometry relative="1" as="geometry"/>
                </mxCell>
                <mxCell id="YCCqw9m8MG-2d-XIQVSM-14" value="60001" style="rounded=0;whiteSpace=wrap;html=1;" parent="1" vertex="1">
                    <mxGeometry x="330" y="330" width="60" height="20" as="geometry"/>
                </mxCell>
                <mxCell id="YCCqw9m8MG-2d-XIQVSM-18" style="edgeStyle=orthogonalEdgeStyle;rounded=0;orthogonalLoop=1;jettySize=auto;html=1;exitX=1;exitY=0.5;exitDx=0;exitDy=0;entryX=0.013;entryY=0.388;entryDx=0;entryDy=0;entryPerimeter=0;strokeWidth=1;" parent="1" source="YCCqw9m8MG-2d-XIQVSM-16" target="YCCqw9m8MG-2d-XIQVSM-3" edge="1">
                    <mxGeometry relative="1" as="geometry"/>
                </mxCell>
                <mxCell id="YCCqw9m8MG-2d-XIQVSM-16" value="60000" style="rounded=0;whiteSpace=wrap;html=1;" parent="1" vertex="1">
                    <mxGeometry x="330" y="301" width="60" height="20" as="geometry"/>
                </mxCell>
                <mxCell id="YCCqw9m8MG-2d-XIQVSM-29" style="edgeStyle=orthogonalEdgeStyle;curved=1;orthogonalLoop=1;jettySize=auto;html=1;entryX=0;entryY=0.5;entryDx=0;entryDy=0;strokeWidth=1;" parent="1" source="YCCqw9m8MG-2d-XIQVSM-28" target="YCCqw9m8MG-2d-XIQVSM-6" edge="1">
                    <mxGeometry relative="1" as="geometry"/>
                </mxCell>
                <mxCell id="YCCqw9m8MG-2d-XIQVSM-28" value="65432" style="rounded=0;whiteSpace=wrap;html=1;" parent="1" vertex="1">
                    <mxGeometry x="330" y="480" width="60" height="20" as="geometry"/>
                </mxCell>
                <mxCell id="6" style="edgeStyle=none;html=1;exitX=1;exitY=0;exitDx=0;exitDy=0;entryX=0;entryY=0.5;entryDx=0;entryDy=0;" edge="1" parent="1" source="YCCqw9m8MG-2d-XIQVSM-31" target="YCCqw9m8MG-2d-XIQVSM-16">
                    <mxGeometry relative="1" as="geometry">
                        <Array as="points">
                            <mxPoint x="270" y="330"/>
                            <mxPoint x="270" y="311"/>
                        </Array>
                    </mxGeometry>
                </mxCell>
                <mxCell id="8" style="edgeStyle=none;html=1;exitX=1;exitY=0.25;exitDx=0;exitDy=0;entryX=0;entryY=0.5;entryDx=0;entryDy=0;" edge="1" parent="1" source="YCCqw9m8MG-2d-XIQVSM-31" target="YCCqw9m8MG-2d-XIQVSM-14">
                    <mxGeometry relative="1" as="geometry"/>
                </mxCell>
                <mxCell id="9" style="edgeStyle=none;html=1;exitX=1;exitY=0.5;exitDx=0;exitDy=0;entryX=0;entryY=0.5;entryDx=0;entryDy=0;" edge="1" parent="1" source="YCCqw9m8MG-2d-XIQVSM-31" target="jmN4ubJqjQ3D0z9f-JT_-1">
                    <mxGeometry relative="1" as="geometry"/>
                </mxCell>
                <mxCell id="10" style="edgeStyle=none;html=1;exitX=1;exitY=0.75;exitDx=0;exitDy=0;entryX=0;entryY=0.5;entryDx=0;entryDy=0;" edge="1" parent="1" source="YCCqw9m8MG-2d-XIQVSM-31" target="YCCqw9m8MG-2d-XIQVSM-28">
                    <mxGeometry relative="1" as="geometry">
                        <Array as="points">
                            <mxPoint x="280" y="470"/>
                        </Array>
                    </mxGeometry>
                </mxCell>
                <mxCell id="YCCqw9m8MG-2d-XIQVSM-31" value="Test Driver&lt;br&gt;&lt;br&gt;(IDE, CLI, container)" style="whiteSpace=wrap;html=1;aspect=fixed;" parent="1" vertex="1">
                    <mxGeometry x="130" y="330" width="80" height="80" as="geometry"/>
                </mxCell>
                <mxCell id="YCCqw9m8MG-2d-XIQVSM-41" value="" style="endArrow=none;html=1;strokeWidth=3;" parent="1" source="YCCqw9m8MG-2d-XIQVSM-42" edge="1">
                    <mxGeometry width="50" height="50" relative="1" as="geometry">
                        <mxPoint x="120" y="240" as="sourcePoint"/>
                        <mxPoint x="640" y="240" as="targetPoint"/>
                    </mxGeometry>
                </mxCell>
                <mxCell id="YCCqw9m8MG-2d-XIQVSM-42" value="localhost&lt;br&gt;port" style="rounded=0;whiteSpace=wrap;html=1;" parent="1" vertex="1">
                    <mxGeometry x="330" y="220" width="60" height="40" as="geometry"/>
                </mxCell>
                <mxCell id="YCCqw9m8MG-2d-XIQVSM-43" value="" style="endArrow=none;html=1;strokeWidth=3;" parent="1" target="YCCqw9m8MG-2d-XIQVSM-42" edge="1">
                    <mxGeometry width="50" height="50" relative="1" as="geometry">
                        <mxPoint x="120" y="240" as="sourcePoint"/>
                        <mxPoint x="640" y="240" as="targetPoint"/>
                    </mxGeometry>
                </mxCell>
                <mxCell id="jmN4ubJqjQ3D0z9f-JT_-4" style="edgeStyle=orthogonalEdgeStyle;rounded=1;orthogonalLoop=1;jettySize=auto;html=1;entryX=0;entryY=0.5;entryDx=0;entryDy=0;" parent="1" source="jmN4ubJqjQ3D0z9f-JT_-1" target="jmN4ubJqjQ3D0z9f-JT_-2" edge="1">
                    <mxGeometry relative="1" as="geometry"/>
                </mxCell>
                <mxCell id="jmN4ubJqjQ3D0z9f-JT_-1" value="59999" style="rounded=0;whiteSpace=wrap;html=1;" parent="1" vertex="1">
                    <mxGeometry x="330" y="410" width="60" height="20" as="geometry"/>
                </mxCell>
                <mxCell id="jmN4ubJqjQ3D0z9f-JT_-3" style="edgeStyle=orthogonalEdgeStyle;orthogonalLoop=1;jettySize=auto;html=1;entryX=0.988;entryY=0.35;entryDx=0;entryDy=0;entryPerimeter=0;rounded=1;" parent="1" source="jmN4ubJqjQ3D0z9f-JT_-2" target="YCCqw9m8MG-2d-XIQVSM-3" edge="1">
                    <mxGeometry relative="1" as="geometry">
                        <Array as="points">
                            <mxPoint x="550" y="420"/>
                            <mxPoint x="550" y="308"/>
                        </Array>
                    </mxGeometry>
                </mxCell>
                <mxCell id="5" style="edgeStyle=none;html=1;exitX=0.5;exitY=1;exitDx=0;exitDy=0;entryX=0.5;entryY=0;entryDx=0;entryDy=0;" parent="1" source="jmN4ubJqjQ3D0z9f-JT_-2" target="YCCqw9m8MG-2d-XIQVSM-6" edge="1">
                    <mxGeometry relative="1" as="geometry"/>
                </mxCell>
                <mxCell id="jmN4ubJqjQ3D0z9f-JT_-2" value="indexer&lt;span style=&quot;color: rgba(0 , 0 , 0 , 0) ; font-family: monospace ; font-size: 0px&quot;&gt;%3CmxGraphModel%3E%3Croot%3E%3CmxCell%20id%3D%220%22%2F%3E%3CmxCell%20id%3D%221%22%20parent%3D%220%22%2F%3E%3CmxCell%20id%3D%222%22%20value%3D%22algod%26lt%3Bbr%26gt%3B%26amp%3Bamp%3B%26lt%3Bbr%26gt%3Bkmd%22%20style%3D%22whiteSpace%3Dwrap%3Bhtml%3D1%3Baspect%3Dfixed%3B%22%20vertex%3D%221%22%20parent%3D%221%22%3E%3CmxGeometry%20x%3D%22480%22%20y%3D%22280%22%20width%3D%2280%22%20height%3D%2280%22%20as%3D%22geometry%22%2F%3E%3C%2FmxCell%3E%3C%2Froot%3E%3C%2FmxGraphModel%3E&lt;/span&gt;" style="whiteSpace=wrap;html=1;aspect=fixed;" parent="1" vertex="1">
                    <mxGeometry x="450" y="380" width="80" height="80" as="geometry"/>
                </mxCell>
            </root>
        </mxGraphModel>
    </diagram>
</mxfile>